<mxfile modified="2023-10-06T07:53:15.562Z" host="app.diagrams.net" agent="Mozilla/5.0 (Windows NT 10.0; Win64; x64; rv:109.0) Gecko/20100101 Firefox/118.0" etag="8kH0L4Il-z6peFWyu2_S" version="22.0.3" type="github">
  <diagram id="Ht1M8jgEwFfnCIfOTk4-" name="Page-1">
    <mxGraphModel dx="1358" dy="1350" grid="1" gridSize="10" guides="1" tooltips="1" connect="1" arrows="1" fold="1" page="1" pageScale="1" pageWidth="1169" pageHeight="827" math="0" shadow="0">
      <root>
        <mxCell id="0" />
        <mxCell id="1" parent="0" />
        <mxCell id="UEzPUAAOIrF-is8g5C7q-175" value="AWS Cloud" style="points=[[0,0],[0.25,0],[0.5,0],[0.75,0],[1,0],[1,0.25],[1,0.5],[1,0.75],[1,1],[0.75,1],[0.5,1],[0.25,1],[0,1],[0,0.75],[0,0.5],[0,0.25]];outlineConnect=0;gradientColor=none;html=1;whiteSpace=wrap;fontSize=12;fontStyle=0;shape=mxgraph.aws4.group;grIcon=mxgraph.aws4.group_aws_cloud_alt;strokeColor=#232F3E;fillColor=none;verticalAlign=top;align=left;spacingLeft=30;fontColor=#232F3E;dashed=0;labelBackgroundColor=#ffffff;container=1;pointerEvents=0;collapsible=0;recursiveResize=0;" parent="1" vertex="1">
          <mxGeometry x="170" y="-640" width="720" height="850" as="geometry" />
        </mxCell>
        <mxCell id="OsJBsGIuthRnVYe66OG0-27" value="AWS Cloud" style="points=[[0,0],[0.25,0],[0.5,0],[0.75,0],[1,0],[1,0.25],[1,0.5],[1,0.75],[1,1],[0.75,1],[0.5,1],[0.25,1],[0,1],[0,0.75],[0,0.5],[0,0.25]];outlineConnect=0;gradientColor=none;html=1;whiteSpace=wrap;fontSize=12;fontStyle=0;shape=mxgraph.aws4.group;grIcon=mxgraph.aws4.group_aws_cloud_alt;strokeColor=#232F3E;fillColor=none;verticalAlign=top;align=left;spacingLeft=30;fontColor=#232F3E;dashed=0;labelBackgroundColor=#ffffff;container=1;pointerEvents=0;collapsible=0;recursiveResize=0;" vertex="1" parent="UEzPUAAOIrF-is8g5C7q-175">
          <mxGeometry x="510" y="340" width="210" height="370" as="geometry" />
        </mxCell>
        <mxCell id="OsJBsGIuthRnVYe66OG0-38" value="Amazon S3" style="sketch=0;outlineConnect=0;fontColor=#232F3E;gradientColor=none;strokeColor=#ffffff;fillColor=#232F3E;dashed=0;verticalLabelPosition=middle;verticalAlign=bottom;align=center;html=1;whiteSpace=wrap;fontSize=10;fontStyle=1;spacing=3;shape=mxgraph.aws4.productIcon;prIcon=mxgraph.aws4.s3;" vertex="1" parent="UEzPUAAOIrF-is8g5C7q-175">
          <mxGeometry x="70" y="640" width="80" height="100" as="geometry" />
        </mxCell>
        <mxCell id="OsJBsGIuthRnVYe66OG0-41" value="Amazon Route 53" style="sketch=0;outlineConnect=0;fontColor=#232F3E;gradientColor=none;strokeColor=#ffffff;fillColor=#232F3E;dashed=0;verticalLabelPosition=middle;verticalAlign=bottom;align=center;html=1;whiteSpace=wrap;fontSize=10;fontStyle=1;spacing=3;shape=mxgraph.aws4.productIcon;prIcon=mxgraph.aws4.route_53;" vertex="1" parent="UEzPUAAOIrF-is8g5C7q-175">
          <mxGeometry x="308" y="24" width="80" height="110" as="geometry" />
        </mxCell>
        <mxCell id="OsJBsGIuthRnVYe66OG0-42" value="AWS WAF" style="sketch=0;outlineConnect=0;fontColor=#232F3E;gradientColor=none;strokeColor=#ffffff;fillColor=#232F3E;dashed=0;verticalLabelPosition=middle;verticalAlign=bottom;align=center;html=1;whiteSpace=wrap;fontSize=10;fontStyle=1;spacing=3;shape=mxgraph.aws4.productIcon;prIcon=mxgraph.aws4.waf;" vertex="1" parent="UEzPUAAOIrF-is8g5C7q-175">
          <mxGeometry x="307" y="200" width="80" height="100" as="geometry" />
        </mxCell>
        <mxCell id="OsJBsGIuthRnVYe66OG0-43" value="Amazon API Gateway" style="sketch=0;outlineConnect=0;fontColor=#232F3E;gradientColor=none;strokeColor=#ffffff;fillColor=#232F3E;dashed=0;verticalLabelPosition=middle;verticalAlign=bottom;align=center;html=1;whiteSpace=wrap;fontSize=10;fontStyle=1;spacing=3;shape=mxgraph.aws4.productIcon;prIcon=mxgraph.aws4.api_gateway;" vertex="1" parent="UEzPUAAOIrF-is8g5C7q-175">
          <mxGeometry x="310" y="360" width="80" height="110" as="geometry" />
        </mxCell>
        <mxCell id="OsJBsGIuthRnVYe66OG0-44" value="Amazon Cloudfront" style="sketch=0;outlineConnect=0;fontColor=#232F3E;gradientColor=none;strokeColor=#ffffff;fillColor=#232F3E;dashed=0;verticalLabelPosition=middle;verticalAlign=bottom;align=center;html=1;whiteSpace=wrap;fontSize=10;fontStyle=1;spacing=3;shape=mxgraph.aws4.productIcon;prIcon=mxgraph.aws4.cloudfront;" vertex="1" parent="UEzPUAAOIrF-is8g5C7q-175">
          <mxGeometry x="70" y="440" width="80" height="110" as="geometry" />
        </mxCell>
        <mxCell id="OsJBsGIuthRnVYe66OG0-47" value="" style="edgeStyle=orthogonalEdgeStyle;html=1;endArrow=block;elbow=vertical;startArrow=block;startFill=1;endFill=1;strokeColor=#545B64;rounded=0;" edge="1" parent="UEzPUAAOIrF-is8g5C7q-175" source="OsJBsGIuthRnVYe66OG0-41" target="OsJBsGIuthRnVYe66OG0-42">
          <mxGeometry width="100" relative="1" as="geometry">
            <mxPoint x="351" y="120" as="sourcePoint" />
            <mxPoint x="450" y="100" as="targetPoint" />
          </mxGeometry>
        </mxCell>
        <mxCell id="OsJBsGIuthRnVYe66OG0-1" value="" style="sketch=0;aspect=fixed;pointerEvents=1;shadow=0;dashed=0;html=1;strokeColor=none;labelPosition=center;verticalLabelPosition=bottom;verticalAlign=top;align=center;fillColor=#00188D;shape=mxgraph.mscae.enterprise.client_application" vertex="1" parent="1">
          <mxGeometry x="492" y="-827" width="50" height="32" as="geometry" />
        </mxCell>
        <mxCell id="OsJBsGIuthRnVYe66OG0-2" value="" style="image;aspect=fixed;perimeter=ellipsePerimeter;html=1;align=center;shadow=0;dashed=0;spacingTop=3;image=img/lib/active_directory/internet_cloud.svg;" vertex="1" parent="1">
          <mxGeometry x="482" y="-740" width="72" height="45.36" as="geometry" />
        </mxCell>
        <mxCell id="OsJBsGIuthRnVYe66OG0-5" value="" style="edgeStyle=orthogonalEdgeStyle;html=1;endArrow=block;elbow=vertical;startArrow=block;startFill=1;endFill=1;strokeColor=#545B64;rounded=0;exitX=0.5;exitY=0;exitDx=0;exitDy=0;entryX=0.5;entryY=1;entryDx=0;entryDy=0;entryPerimeter=0;" edge="1" parent="1" source="OsJBsGIuthRnVYe66OG0-2" target="OsJBsGIuthRnVYe66OG0-1">
          <mxGeometry width="100" relative="1" as="geometry">
            <mxPoint x="510" y="-660" as="sourcePoint" />
            <mxPoint x="610" y="-660" as="targetPoint" />
          </mxGeometry>
        </mxCell>
        <mxCell id="OsJBsGIuthRnVYe66OG0-11" value="Internet" style="text;html=1;strokeColor=none;fillColor=none;align=center;verticalAlign=middle;whiteSpace=wrap;rounded=0;" vertex="1" parent="1">
          <mxGeometry x="548" y="-729.5" width="60" height="30" as="geometry" />
        </mxCell>
        <mxCell id="OsJBsGIuthRnVYe66OG0-46" value="" style="edgeStyle=orthogonalEdgeStyle;html=1;endArrow=block;elbow=vertical;startArrow=block;startFill=1;endFill=1;strokeColor=#545B64;rounded=0;exitX=0.5;exitY=1;exitDx=0;exitDy=0;" edge="1" parent="1" source="OsJBsGIuthRnVYe66OG0-2" target="OsJBsGIuthRnVYe66OG0-41">
          <mxGeometry width="100" relative="1" as="geometry">
            <mxPoint x="520" y="-620" as="sourcePoint" />
            <mxPoint x="620" y="-620" as="targetPoint" />
          </mxGeometry>
        </mxCell>
        <mxCell id="OsJBsGIuthRnVYe66OG0-51" value="" style="edgeStyle=orthogonalEdgeStyle;html=1;endArrow=block;elbow=vertical;startArrow=block;startFill=1;endFill=1;strokeColor=#545B64;rounded=0;" edge="1" parent="1" target="OsJBsGIuthRnVYe66OG0-43">
          <mxGeometry width="100" relative="1" as="geometry">
            <mxPoint x="520" y="-340" as="sourcePoint" />
            <mxPoint x="620" y="-390" as="targetPoint" />
          </mxGeometry>
        </mxCell>
        <mxCell id="OsJBsGIuthRnVYe66OG0-52" value="&lt;div&gt;Client&lt;/div&gt;" style="text;html=1;strokeColor=none;fillColor=none;align=center;verticalAlign=middle;whiteSpace=wrap;rounded=0;" vertex="1" parent="1">
          <mxGeometry x="539" y="-824.5" width="60" height="30" as="geometry" />
        </mxCell>
        <mxCell id="OsJBsGIuthRnVYe66OG0-53" value="" style="edgeStyle=orthogonalEdgeStyle;html=1;endArrow=block;elbow=vertical;startArrow=block;startFill=1;endFill=1;strokeColor=#545B64;rounded=0;" edge="1" parent="1">
          <mxGeometry width="100" relative="1" as="geometry">
            <mxPoint x="550" y="-240" as="sourcePoint" />
            <mxPoint x="650" y="-240" as="targetPoint" />
          </mxGeometry>
        </mxCell>
      </root>
    </mxGraphModel>
  </diagram>
</mxfile>
